# xmcd CD database file
#
# Track frame offsets:
#	183
#	31470
#	58618
#	87940
#	101788
#	118110
#	139885
#	164930
#	186760
#	221245
#	251613
#	285635
#
# Disc length: 4251 seconds
#
# Revision: 0
# Processed by: cddbd v1.4PL0 Copyright (c) Steve Scherf et al.
# Submitted via: CDex 1.50Beta7
#
DISCID=be10990c
DTITLE=Tony Scott and Bill Evans - A Day in New York(2)
DYEAR=1900
DGENRE=Jazz
TTITLE0=I Can't Get Started
TTITLE1=Gone with the Wind
TTITLE2=The Explorer
TTITLE3=If I'm Lucky
TTITLE4=The Chant
TTITLE5=Villa Jazz
TTITLE6=Zonk
TTITLE7=Blues for Five
TTITLE8=Third Moon
TTITLE9=For Pete's Sake
TTITLE10=Just One of Those Things
TTITLE11=Franzy Pants
EXTD=
EXTT0=
EXTT1=
EXTT2=
EXTT3=
EXTT4=
EXTT5=
EXTT6=
EXTT7=
EXTT8=
EXTT9=
EXTT10=
EXTT11=
PLAYORDER=
